<svg id="Layer_3" enable-background="new 0 0 64 64" height="512" viewBox="0 0 64 64" width="512" xmlns="http://www.w3.org/2000/svg"><g><g><path d="m41 4h12c1.105 0 2 .895 2 2v54c0 1.105-.895 2-2 2h-42c-1.105 0-2-.895-2-2v-54c0-1.105.895-2 2-2h12" fill="#976947"/></g><g><path d="m41 8h10v38h-12v12h-26v-50h10" fill="#c7e2fc"/></g><g><path d="m23 8h-10v39.122c3.024 1.844 6.416 2.878 10 2.878 12.703 0 23-12.984 23-29 0-4.676-.883-9.089-2.442-13h-2.558z" fill="#ebf7fe"/></g><g><path d="m23 2h18v8h-18z" fill="#4d5d7a"/></g><g><path d="m17 14h8v8h-8z" fill="#a8b0bc"/></g><g><path d="m17 26h8v8h-8z" fill="#a8b0bc"/></g><g><path d="m17 38h8v8h-8z" fill="#a8b0bc"/></g><g><path d="m51 46h-12v12" fill="#a8b0bc"/></g><g><g><path d="m18.55 14.5h9.899v2h-9.899z" fill="#4d5d7a" transform="matrix(.707 -.707 .707 .707 -4.077 21.157)"/></g></g><g><g><path d="m18.55 26.5h9.899v2h-9.899z" fill="#4d5d7a" transform="matrix(.707 -.707 .707 .707 -12.562 24.672)"/></g></g><g><g><path d="m18.55 38.5h9.899v2h-9.899z" fill="#4d5d7a" transform="matrix(.707 -.707 .707 .707 -21.048 28.186)"/></g></g><g><g><path d="m28 13h2v2h-2z" fill="#a8b0bc"/></g></g><g><g><path d="m32 13h16v2h-16z" fill="#a8b0bc"/></g></g><g><g><path d="m46 17h2v2h-2z" fill="#a8b0bc"/></g></g><g><g><path d="m28 17h16v2h-16z" fill="#a8b0bc"/></g></g><g><g><path d="m28 25h2v2h-2z" fill="#a8b0bc"/></g></g><g><g><path d="m32 25h16v2h-16z" fill="#a8b0bc"/></g></g><g><g><path d="m46 29h2v2h-2z" fill="#a8b0bc"/></g></g><g><g><path d="m28 29h16v2h-16z" fill="#a8b0bc"/></g></g><g><g><path d="m28 37h2v2h-2z" fill="#a8b0bc"/></g></g><g><g><path d="m32 37h16v2h-16z" fill="#a8b0bc"/></g></g><g><g><path d="m46 41h2v2h-2z" fill="#a8b0bc"/></g></g><g><g><path d="m28 41h16v2h-16z" fill="#a8b0bc"/></g></g></g></svg>