<svg id="Layer_3" enable-background="new 0 0 64 64" height="512" viewBox="0 0 64 64" width="512" xmlns="http://www.w3.org/2000/svg"><g><g><path d="m2 4h46v58h-46z" fill="#c7e2fc"/></g><g><path d="m2 58.956c23.913-.915 43.021-20.579 43.021-44.717 0-3.525-.42-6.949-1.191-10.239h-41.83z" fill="#ebf7fe"/></g><g><path d="m48 52v-23h-6c-1.657 0-3-1.343-3-3 0-1.657 1.343-3 3-3h8c3.314 0 6 2.686 6 6v13l2 4z" fill="#f5cf88"/></g><g><g><path d="m48 29.313v22.687l6.313-3.788c.102-.891.161-1.794.161-2.712-.001-6.276-2.466-11.972-6.474-16.187z" fill="#fadfb2"/></g><g><path d="m39.983 23.792c-.6.549-.983 1.331-.983 2.208 0 1.657 1.343 3 3 3h5.702c-2.184-2.214-4.802-3.996-7.719-5.208z" fill="#fadfb2"/></g></g><g><path d="m43.982 62-2.982-5 18-12 3 4v13z" fill="#f19846"/></g><g><path d="m54.325 48.117-13.325 8.883 2.982 5h3.72c3.61-3.659 6.026-8.496 6.623-13.883z" fill="#f5ba5b"/></g><g><path d="m13 8-2 2v4l2 2h23l2-2v-4l-2-2z" fill="#fff"/></g><g><path d="m18 2h14v8h-14z" fill="#243242"/></g><g><path d="m49 52h-2v-22h-5c-2.206 0-4-1.794-4-4s1.794-4 4-4h8c3.859 0 7 3.14 7 7v12.764l1.895 3.789-1.789.895-2-4c-.07-.139-.106-.293-.106-.448v-13c0-2.757-2.243-5-5-5h-8c-1.103 0-2 .897-2 2s.897 2 2 2h6c.553 0 1 .448 1 1z"/></g><g><path d="m49 23h-2v-18h-15v-2h16c.553 0 1 .448 1 1z"/></g><g><path d="m62 63h-60c-.553 0-1-.448-1-1v-58c0-.552.447-1 1-1h16v2h-15v56h39.222l-2.08-3.488c-.273-.458-.14-1.049.304-1.344l18-12c.44-.295 1.036-.192 1.354.232l3 4c.13.173.2.384.2.6v13c0 .552-.447 1-1 1zm-17.449-2h16.449v-11.667l-2.232-2.977-16.422 10.949z"/></g><g><path d="m32 11h-14c-.553 0-1-.448-1-1v-8c0-.552.447-1 1-1h14c.553 0 1 .448 1 1v8c0 .552-.447 1-1 1zm-13-2h12v-6h-12z"/></g><g><path d="m36 17h-23c-.266 0-.52-.105-.707-.293l-2-2c-.188-.187-.293-.442-.293-.707v-4c0-.265.105-.52.293-.707l2-2c.187-.188.441-.293.707-.293h5v2h-4.586l-1.414 1.414v3.172l1.414 1.414h22.172l1.414-1.414v-3.172l-1.414-1.414h-3.586v-2h4c.266 0 .52.105.707.293l2 2c.188.187.293.442.293.707v4c0 .265-.105.52-.293.707l-2 2c-.187.188-.441.293-.707.293z"/></g><g><path d="m7 21h26v2h-26z"/></g><g><path d="m10 25h26v2h-26z"/></g><g><path d="m10 29h26v2h-26z"/></g><g><path d="m10 47h26v2h-26z"/></g><g><path d="m10 51h26v2h-26z"/></g><g><path d="m7 33h26v2h-26z"/></g><g><path d="m49 52h-2v-22h-5c-2.206 0-4-1.794-4-4s1.794-4 4-4h8c3.859 0 7 3.14 7 7v12.764l1.895 3.789-1.789.895-2-4c-.07-.139-.106-.293-.106-.448v-13c0-2.757-2.243-5-5-5h-8c-1.103 0-2 .897-2 2s.897 2 2 2h6c.553 0 1 .448 1 1z"/></g></g></svg>