<?xml version="1.0" encoding="iso-8859-1"?>
<!-- Generator: Adobe Illustrator 19.0.0, SVG Export Plug-In . SVG Version: 6.00 Build 0)  -->
<svg version="1.1" id="Capa_1" xmlns="http://www.w3.org/2000/svg" xmlns:xlink="http://www.w3.org/1999/xlink" x="0px" y="0px"
	 viewBox="0 0 512 512" style="enable-background:new 0 0 512 512;" xml:space="preserve">
<path style="fill:#60C28E;" d="M330.459,62.307c-44.436,0-82.2,29.017-95.403,69.089c-15.993-10.758-35.232-17.046-55.914-17.046
	c-13.687,0-24.782,11.095-24.782,24.782c0,13.687,11.095,24.782,24.782,24.782c28.053,0,50.876,22.823,50.876,50.876v188.575
	c0,13.687,11.095,24.782,24.782,24.782c13.687,0,24.782-11.095,24.782-24.782V162.748c0-28.054,22.822-50.877,50.876-50.877
	c13.687,0,24.782-11.095,24.782-24.782S344.146,62.307,330.459,62.307z"/>
<path id="SVGCleanerId_0" style="fill:#80D3AE;" d="M390.092,159.186c53.75,0,68.234-34.535,114.166-40.34
	c6.32-0.799,9.746-7.84,6.492-13.316c-35.284-59.369-79.114-81.265-120.658-81.265c-39.328,0-71.21,30.203-71.21,67.46
	C318.882,128.983,350.764,159.186,390.092,159.186z"/>
<path style="fill:#59B382;" d="M330.459,62.307c-10.088,0-19.826,1.51-29.016,4.29c-2.46,7.973-3.802,16.401-3.802,25.129
	c0,9.97,1.749,19.551,4.925,28.504c8.016-5.277,17.599-8.359,27.893-8.359c13.687,0,24.782-11.095,24.782-24.782
	S344.146,62.307,330.459,62.307z"/>
<g>
	<path id="SVGCleanerId_0_1_" style="fill:#80D3AE;" d="M390.092,159.186c53.75,0,68.234-34.535,114.166-40.34
		c6.32-0.799,9.746-7.84,6.492-13.316c-35.284-59.369-79.114-81.265-120.658-81.265c-39.328,0-71.21,30.203-71.21,67.46
		C318.882,128.983,350.764,159.186,390.092,159.186z"/>
</g>
<path style="fill:#60C28E;" d="M455.2,101.207c-1.092,0-2.2-0.239-3.249-0.745c-11.449-5.514-58.199-11.594-94.691-5.747
	c-4.092,0.659-7.937-2.129-8.592-6.218c-0.655-4.09,2.129-7.937,6.219-8.592c38.714-6.205,88.739-0.101,103.572,7.042
	c3.732,1.797,5.301,6.28,3.503,10.012C460.67,99.642,457.99,101.207,455.2,101.207z"/>
<path id="SVGCleanerId_1" style="fill:#80D3AE;" d="M121.908,206.592c-53.75,0-68.234-34.535-114.166-40.34
	c-6.32-0.799-9.746-7.84-6.492-13.316c35.284-59.369,79.114-81.265,120.658-81.265c39.328,0,71.209,30.203,71.209,67.46
	C193.118,176.389,161.236,206.592,121.908,206.592z"/>
<path style="fill:#59B382;" d="M154.361,139.132c0,13.687,11.095,24.782,24.782,24.782c10.497,0,20.26,3.197,28.371,8.665
	c4.401-10.329,6.846-21.617,6.846-33.447c0-6.595-0.777-13.015-2.207-19.203c-10.343-3.611-21.45-5.579-33.01-5.579
	C165.456,114.35,154.361,125.445,154.361,139.132z"/>
<g>
	<path id="SVGCleanerId_1_1_" style="fill:#80D3AE;" d="M121.908,206.592c-53.75,0-68.234-34.535-114.166-40.34
		c-6.32-0.799-9.746-7.84-6.492-13.316c35.284-59.369,79.114-81.265,120.658-81.265c39.328,0,71.209,30.203,71.209,67.46
		C193.118,176.389,161.236,206.592,121.908,206.592z"/>
</g>
<path style="fill:#60C28E;" d="M56.801,148.612c-2.791,0-5.47-1.565-6.763-4.247c-1.797-3.732-0.229-8.214,3.503-10.012
	c14.832-7.142,64.857-13.247,103.573-7.042c4.09,0.655,6.874,4.502,6.218,8.592c-0.655,4.09-4.499,6.875-8.592,6.218
	c-36.49-5.847-83.242,0.232-94.69,5.746C59,148.373,57.892,148.612,56.801,148.612z"/>
<path style="fill:#A67E74;" d="M450.504,424.789c-3.802-0.381-7.17-2.52-9.449-5.588c-15.052-20.268-39.156-33.41-66.342-33.41
	c-11.127,0-21.737,2.204-31.423,6.195c-7.051,2.905-15.117,0.591-19.88-5.365c-21.612-27.031-54.854-44.355-92.155-44.355
	c-40.15,0-75.604,20.065-96.907,50.709c-4.447,6.397-12.408,9.212-19.946,7.241c-7.313-1.912-14.986-2.932-22.899-2.932
	c-29.214,0-55.193,13.85-71.73,35.342c-17.314,22.502-1.112,55.109,27.28,55.109h423.826c22.827,0,34.662-27.442,18.825-43.882
	C479.579,433.342,465.849,426.325,450.504,424.789z"/>
<path style="fill:#946450;" d="M243.063,342.863c-3.884-0.386-7.821-0.596-11.807-0.596c-40.149,0-75.604,20.065-96.906,50.709
	c-4.447,6.397-12.408,9.212-19.946,7.241c-7.313-1.912-14.986-2.932-22.899-2.932c-29.214,0-55.193,13.85-71.73,35.342
	c-17.314,22.502-1.111,55.109,27.28,55.109H348.59C266.483,465.812,238.654,389.714,243.063,342.863z"/>
<g>
	<circle style="fill:#875541;" cx="68.916" cy="435.641" r="7.489"/>
	<circle style="fill:#875541;" cx="193.12" cy="389.241" r="7.489"/>
	<circle style="fill:#875541;" cx="142.03" cy="450.621" r="7.489"/>
</g>
<g>
	<circle style="fill:#946450;" cx="330.42" cy="458.101" r="7.489"/>
	<circle style="fill:#946450;" cx="283.86" cy="415.001" r="7.489"/>
	<circle style="fill:#946450;" cx="398.15" cy="428.151" r="7.489"/>
</g>
<g>
</g>
<g>
</g>
<g>
</g>
<g>
</g>
<g>
</g>
<g>
</g>
<g>
</g>
<g>
</g>
<g>
</g>
<g>
</g>
<g>
</g>
<g>
</g>
<g>
</g>
<g>
</g>
<g>
</g>
</svg>
